<svg width="720" height="860" viewBox="0 0 720 860" fill="none" xmlns="http://www.w3.org/2000/svg">
  <rect width="720" height="860" rx="40" fill="#EEE6DA"/>
  <rect x="58" y="58" width="604" height="744" rx="30" fill="#F8F4ED"/>
  <circle cx="360" cy="260" r="96" fill="#D9C7B1"/>
  <path d="M265 512C265 454.562 311.562 408 369 408H375C432.438 408 479 454.562 479 512V676H265V512Z" fill="#243447"/>
  <path d="M306 256C306 216.235 338.235 184 378 184C417.765 184 450 216.235 450 256V274C450 313.765 417.765 346 378 346C338.235 346 306 313.765 306 274V256Z" fill="#E7CBB1"/>
  <path d="M312 240C320 197 357 170 404 170C445 170 472 194 480 232C459 216 431 208 397 208C360 208 331 218 312 240Z" fill="#5A4437"/>
  <path d="M288 676H496V736H288V676Z" fill="#D8C5AB"/>
  <path d="M197 746H539" stroke="#B08857" stroke-width="10" stroke-linecap="round"/>
</svg>
