<svg width="720" height="540" viewBox="0 0 720 540" fill="none" xmlns="http://www.w3.org/2000/svg">
  <rect width="720" height="540" rx="40" fill="#EEE5D9"/>
  <rect x="58" y="58" width="604" height="424" rx="26" fill="#FBF8F4"/>
  <path d="M248 176C248 134.026 282.026 100 324 100C365.974 100 400 134.026 400 176V192C400 233.974 365.974 268 324 268C282.026 268 248 233.974 248 192V176Z" fill="#E6C9AE"/>
  <path d="M374 176C374 134.026 408.026 100 450 100C491.974 100 526 134.026 526 176V192C526 233.974 491.974 268 450 268C408.026 268 374 233.974 374 192V176Z" fill="#E6C9AE"/>
  <path d="M186 380C186 322.562 232.562 276 290 276H306C363.438 276 410 322.562 410 380V430H186V380Z" fill="#33453F"/>
  <path d="M310 380C310 322.562 356.562 276 414 276H430C487.438 276 534 322.562 534 380V430H310V380Z" fill="#243447"/>
  <path d="M350 238L420 308" stroke="#B08857" stroke-width="8" stroke-linecap="round"/>
  <path d="M420 238L350 308" stroke="#B08857" stroke-width="8" stroke-linecap="round"/>
</svg>
