<svg width="720" height="860" viewBox="0 0 720 860" fill="none" xmlns="http://www.w3.org/2000/svg">
  <rect width="720" height="860" rx="40" fill="#ECE3D8"/>
  <rect x="82" y="72" width="556" height="714" rx="34" fill="#FAF6F0"/>
  <circle cx="360" cy="250" r="94" fill="#D8C3A9"/>
  <path d="M286 504C286 450.981 328.981 408 382 408H390C443.019 408 486 450.981 486 504V688H286V504Z" fill="#33453F"/>
  <path d="M304 256C304 214.026 338.026 180 380 180C421.974 180 456 214.026 456 256V278C456 319.974 421.974 354 380 354C338.026 354 304 319.974 304 278V256Z" fill="#E6C8AA"/>
  <path d="M312 226C326 188 356 170 402 170C434 170 458 181 474 204C439 198 407 197 378 202C348 206 326 214 312 226Z" fill="#5C4A3D"/>
  <rect x="226" y="708" width="284" height="10" rx="5" fill="#B08857"/>
</svg>
