<svg width="208" height="44" viewBox="0 0 208 44" fill="none" xmlns="http://www.w3.org/2000/svg">
  <rect width="44" height="44" rx="8" fill="#35546B"/>
  <path d="M13 31V13H17.6L22 20.1L26.4 13H31V31H26.6V21L22.7 27.4H21.3L17.4 21V31H13Z" fill="#FDF8F1"/>
  <path d="M50 31V13H54.8V31H50Z" fill="#1D2428"/>
  <path d="M60.4 31V13H65.6L75.6 24.9V13H80.3V31H75.5L65.1 18.6V31H60.4Z" fill="#1D2428"/>
  <path d="M86 31V13H100.3V17H90.8V20.3H99.7V24.1H90.8V31H86Z" fill="#1D2428"/>
  <path d="M103.8 31V13H108.6V27H117.9V31H103.8Z" fill="#1D2428"/>
  <path d="M121.2 31V13H135.9V17H126V20H134.6V23.8H126V27H136.2V31H121.2Z" fill="#1D2428"/>
  <path d="M140.5 31V13H148.1C151.1 13 153.3 13.8 154.8 15.3C156.2 16.7 156.9 18.5 156.9 20.8C156.9 23.1 156.2 24.9 154.8 26.4C153.3 27.8 151.1 28.6 148.1 28.6H145.3V31H140.5ZM145.3 24.8H147.6C149.1 24.8 150.2 24.5 151 23.8C151.7 23.2 152.1 22.2 152.1 20.9C152.1 19.6 151.7 18.6 151 18C150.2 17.3 149.1 17 147.6 17H145.3V24.8Z" fill="#1D2428"/>
  <path d="M160.3 31V13H165.1V31H160.3Z" fill="#1D2428"/>
  <path d="M170.7 31V13H184.1V17H175.5V20.2H183.4V24H175.5V31H170.7Z" fill="#1D2428"/>
  <path d="M188 31V13H192.8V31H188Z" fill="#1D2428"/>
  <path d="M50 10.8H196" stroke="#90634D" stroke-width="1.2" stroke-linecap="round"/>
</svg>
